# xmcd
#
# Track frame offsets:
#	150
#	19965
#	31976
#	58045
#	70523
#	86914
#	105518
#	124154
#	137802
#	156401
#	168858
#	187458
#	208002
#	225650
#
# Disc length: 3214 seconds
# Revision: 0
# Processed by: cddbd v1.5.2PL0 Copyright (c) Steve Scherf et al.
# Submitted via: dBpowerAMP V12.0
#
DISCID=c70c8c0e
DTITLE=Donna The Buffalo - Tonight, Tomorrow and Yesterday
DYEAR=2013
DGENRE=Americana
TTITLE0=All Aboard
TTITLE1=Don't Know What We've Got
TTITLE2=Working On That
TTITLE3=I Love My Tribe
TTITLE4=Tonight, Tomorrow and Yesterday
TTITLE5=One Day At A Time
TTITLE6=Love Time
TTITLE7=No Reason Why
TTITLE8=I See How You Are
TTITLE9=I Can Fly
TTITLE10=Ms. Parsley
TTITLE11=Why You Wanna Leave Me
TTITLE12=Real Love
TTITLE13=Spinning World
EXTD=
EXTT0=
EXTT1=
EXTT2=
EXTT3=
EXTT4=
EXTT5=
EXTT6=
EXTT7=
EXTT8=
EXTT9=
EXTT10=
EXTT11=
EXTT12=
EXTT13=
PLAYORDER=
